<svg viewBox="0 0 119 36" fill="none" xmlns="http://www.w3.org/2000/svg">
<path d="M25.9162 34.226C23.1644 35.5475 20.1216 36.1474 17.074 35.9693C14.0265 35.7913 11.0743 34.841 8.49509 33.208C5.91586 31.575 3.79433 29.3128 2.33 26.6342C0.865675 23.9556 0.106658 20.9485 0.124325 17.8958C0.141991 14.8431 0.935761 11.8451 2.43099 9.18361C3.92622 6.52212 6.07379 4.28464 8.67175 2.68156C11.2697 1.07849 14.2327 0.162489 17.2821 0.0197009C20.3315 -0.123087 23.3671 0.512026 26.1035 1.86532L22.2099 9.73826C20.8087 9.04531 19.2544 8.7201 17.6929 8.79321C16.1315 8.86633 14.6143 9.33536 13.284 10.1562C11.9537 10.9771 10.8541 12.1228 10.0884 13.4856C9.3228 14.8484 8.91635 16.3835 8.9073 17.9467C8.89825 19.5098 9.28691 21.0495 10.0367 22.4211C10.7865 23.7927 11.8728 24.951 13.1935 25.7872C14.5142 26.6234 16.0259 27.11 17.5864 27.2012C19.1469 27.2924 20.7049 26.9852 22.114 26.3085L25.9162 34.226Z" fill="url(#paint0_linear_14087_3183)"/>
<ellipse cx="17.9096" cy="17.7866" rx="6.21429" ry="6.21429" fill="#B982FF"/>
<path d="M117.186 22.7177C116.72 22.7177 116.32 22.5548 115.986 22.229C115.656 21.8992 115.493 21.499 115.497 21.0284C115.493 20.5699 115.656 20.1778 115.986 19.852C116.32 19.5262 116.72 19.3633 117.186 19.3633C117.629 19.3633 118.019 19.5262 118.357 19.852C118.699 20.1778 118.872 20.5699 118.876 21.0284C118.872 21.3421 118.789 21.6277 118.628 21.8851C118.471 22.1385 118.266 22.3416 118.013 22.4945C117.76 22.6433 117.484 22.7177 117.186 22.7177Z" fill="#B982FF"/>
<path d="M107.698 25.9998C107.316 25.9998 106.952 25.9696 106.606 25.9093C106.26 25.8529 105.956 25.7745 105.695 25.674L106.419 23.309C106.692 23.4055 106.941 23.4679 107.167 23.496C107.396 23.5242 107.591 23.5081 107.752 23.4477C107.917 23.3874 108.035 23.2728 108.108 23.1039L108.18 22.9349L104.922 13.2578H108.397L109.894 19.677H109.99L111.511 13.2578H115.01L111.631 23.2969C111.462 23.8077 111.217 24.2662 110.895 24.6725C110.577 25.0827 110.159 25.4065 109.64 25.6438C109.121 25.8811 108.474 25.9998 107.698 25.9998Z" fill="white"/>
<path d="M103.974 10.168V22.5238H100.644V10.168H103.974Z" fill="white"/>
<path d="M98.947 10.168V22.5238H95.6167V10.168H98.947Z" fill="white"/>
<path d="M89.463 22.6932C88.4575 22.6932 87.5968 22.4941 86.8808 22.0959C86.1649 21.6937 85.6159 21.1346 85.2338 20.4187C84.8517 19.6987 84.6606 18.8642 84.6606 17.9149C84.6606 16.9657 84.8517 16.1332 85.2338 15.4172C85.6159 14.6973 86.1649 14.1382 86.8808 13.74C87.5968 13.3378 88.4575 13.1367 89.463 13.1367C90.4685 13.1367 91.3292 13.3378 92.0452 13.74C92.7611 14.1382 93.3101 14.6973 93.6922 15.4172C94.0743 16.1332 94.2654 16.9657 94.2654 17.9149C94.2654 18.8642 94.0743 19.6987 93.6922 20.4187C93.3101 21.1346 92.7611 21.6937 92.0452 22.0959C91.3292 22.4941 90.4685 22.6932 89.463 22.6932ZM89.4871 20.2317C89.7687 20.2317 90.012 20.1371 90.2171 19.9481C90.4223 19.7591 90.5811 19.4896 90.6938 19.1397C90.8064 18.7897 90.8627 18.3735 90.8627 17.8908C90.8627 17.4041 90.8064 16.9879 90.6938 16.642C90.5811 16.292 90.4223 16.0226 90.2171 15.8335C90.012 15.6445 89.7687 15.55 89.4871 15.55C89.1895 15.55 88.9341 15.6445 88.7209 15.8335C88.5078 16.0226 88.3449 16.292 88.2322 16.642C88.1196 16.9879 88.0633 17.4041 88.0633 17.8908C88.0633 18.3735 88.1196 18.7897 88.2322 19.1397C88.3449 19.4896 88.5078 19.7591 88.7209 19.9481C88.9341 20.1371 89.1895 20.2317 89.4871 20.2317Z" fill="white"/>
<path d="M83.7388 13.2573V15.6705H77.6333V13.2573H83.7388ZM78.8158 11.0371H82.1461V19.5438C82.1461 19.6725 82.1682 19.7811 82.2124 19.8696C82.2567 19.9541 82.3251 20.0184 82.4176 20.0627C82.5101 20.1029 82.6287 20.123 82.7735 20.123C82.8741 20.123 82.9907 20.1109 83.1234 20.0868C83.2602 20.0626 83.3607 20.0425 83.4251 20.0265L83.9077 22.3673C83.7589 22.4115 83.5458 22.4658 83.2682 22.5302C82.9947 22.5945 82.6689 22.6368 82.2909 22.6569C81.5267 22.6971 80.8852 22.6187 80.3663 22.4216C79.8475 22.2205 79.4573 21.9048 79.1959 21.4744C78.9344 21.044 78.8077 20.5051 78.8158 19.8575V11.0371Z" fill="white"/>
<path d="M67.2129 25.9993V13.2574H70.519V14.8743H70.5914C70.7121 14.5605 70.8891 14.273 71.1224 14.0115C71.3556 13.7461 71.6452 13.5349 71.9911 13.378C72.337 13.2172 72.7392 13.1367 73.1977 13.1367C73.8091 13.1367 74.3903 13.2996 74.9413 13.6254C75.4964 13.9512 75.9468 14.464 76.2927 15.1638C76.6427 15.8637 76.8176 16.7727 76.8176 17.8908C76.8176 18.9607 76.6507 19.8476 76.3169 20.5514C75.9871 21.2553 75.5446 21.7802 74.9896 22.1261C74.4386 22.472 73.8332 22.6449 73.1736 22.6449C72.7392 22.6449 72.3511 22.5745 72.0092 22.4338C71.6714 22.289 71.3818 22.0939 71.1405 21.8485C70.9031 21.5992 70.7201 21.3176 70.5914 21.0039H70.5432V25.9993H67.2129ZM70.4708 17.8908C70.4708 18.3413 70.5291 18.7314 70.6457 19.0612C70.7664 19.387 70.9353 19.6404 71.1525 19.8214C71.3737 19.9984 71.6372 20.0869 71.9429 20.0869C72.2485 20.0869 72.508 20.0004 72.7211 19.8274C72.9383 19.6505 73.1032 19.3991 73.2158 19.0733C73.3325 18.7435 73.3908 18.3493 73.3908 17.8908C73.3908 17.4323 73.3325 17.0401 73.2158 16.7144C73.1032 16.3845 72.9383 16.1332 72.7211 15.9602C72.508 15.7832 72.2485 15.6948 71.9429 15.6948C71.6372 15.6948 71.3737 15.7832 71.1525 15.9602C70.9353 16.1332 70.7664 16.3845 70.6457 16.7144C70.5291 17.0401 70.4708 17.4323 70.4708 17.8908Z" fill="white"/>
<path d="M58.953 25.9998C58.5709 25.9998 58.2069 25.9696 57.861 25.9093C57.5151 25.8529 57.2114 25.7745 56.95 25.674L57.6739 23.309C57.9474 23.4055 58.1968 23.4679 58.4221 23.496C58.6513 23.5242 58.8464 23.5081 59.0073 23.4477C59.1722 23.3874 59.2908 23.2728 59.3632 23.1039L59.4356 22.9349L56.1777 13.2578H59.6528L61.149 19.677H61.2456L62.7659 13.2578H66.2651L62.8866 23.2969C62.7176 23.8077 62.4723 24.2662 62.1505 24.6725C61.8328 25.0827 61.4145 25.4065 60.8956 25.6438C60.3768 25.8811 59.7292 25.9998 58.953 25.9998Z" fill="white"/>
<path d="M49.2778 22.5242V13.2574H52.5116V15.0191H52.6081C52.777 14.3675 53.0445 13.8909 53.4105 13.5892C53.7805 13.2875 54.2129 13.1367 54.7076 13.1367C54.8524 13.1367 54.9952 13.1488 55.136 13.1729C55.2808 13.193 55.4195 13.2232 55.5523 13.2634V16.105C55.3874 16.0487 55.1843 16.0065 54.9429 15.9783C54.7016 15.9502 54.4945 15.9361 54.3215 15.9361C53.9957 15.9361 53.7021 16.0105 53.4407 16.1593C53.1833 16.3041 52.9802 16.5092 52.8313 16.7747C52.6825 17.0361 52.6081 17.3438 52.6081 17.6978V22.5242H49.2778Z" fill="white"/>
<path d="M47.7076 14.8024H44.3049C44.2808 14.5208 44.2164 14.2654 44.1119 14.0362C44.0113 13.8069 43.8705 13.6098 43.6896 13.4449C43.5126 13.276 43.2974 13.1473 43.044 13.0588C42.7906 12.9663 42.503 12.92 42.1813 12.92C41.6182 12.92 41.1416 13.0568 40.7514 13.3303C40.3653 13.6038 40.0717 13.9959 39.8706 14.5067C39.6735 15.0175 39.575 15.6309 39.575 16.3468C39.575 17.103 39.6755 17.7365 39.8766 18.2473C40.0817 18.7541 40.3774 19.1361 40.7635 19.3936C41.1496 19.647 41.6142 19.7736 42.1571 19.7736C42.4668 19.7736 42.7444 19.7354 42.9897 19.659C43.2351 19.5786 43.4482 19.4639 43.6292 19.3151C43.8102 19.1663 43.957 18.9873 44.0696 18.7782C44.1863 18.565 44.2647 18.3257 44.3049 18.0602L47.7076 18.0844C47.6674 18.6072 47.5206 19.1402 47.2672 19.6832C47.0138 20.2221 46.6538 20.7208 46.1873 21.1794C45.7247 21.6339 45.1516 21.9999 44.4678 22.2774C43.7841 22.5549 42.9897 22.6937 42.0847 22.6937C40.9505 22.6937 39.9329 22.4503 39.032 21.9637C38.1351 21.477 37.4252 20.7611 36.9023 19.8159C36.3834 18.8707 36.124 17.7143 36.124 16.3468C36.124 14.9713 36.3895 13.8129 36.9204 12.8718C37.4513 11.9266 38.1672 11.2127 39.0682 10.73C39.9691 10.2433 40.9746 10 42.0847 10C42.865 10 43.583 10.1066 44.2386 10.3198C44.8942 10.5329 45.4693 10.8446 45.964 11.2549C46.4588 11.6611 46.8569 12.1619 47.1586 12.7571C47.4602 13.3524 47.6433 14.0341 47.7076 14.8024Z" fill="white"/>
<defs>
<linearGradient id="paint0_linear_14087_3183" x1="29.2417" y1="3.83823" x2="3.69755" y2="29.3824" gradientUnits="userSpaceOnUse">
<stop stop-color="#18C8FF"/>
<stop offset="1" stop-color="#933FFE"/>
</linearGradient>
</defs>
</svg>
