<svg viewBox="0 0 99 99" fill="none" xmlns="http://www.w3.org/2000/svg">
<g id="Icon">
<g id="Vector">
<path d="M65.8105 84L95 59.6442V12H53.9613V53.434H68.7005L52.3236 69.9299L65.8105 84ZM62.1497 45.0889V20.248H86.8115V55.4717L66.6775 72.4528L63.7874 69.9299L78.623 55.0836V45.0889H62.1497ZM3 69.9299L16.9686 84L46.1581 59.6442V12H4.6377V53.434H19.377L3 69.9299ZM12.8262 45.0889V20.248H37.488V55.4717L17.3539 72.4528L14.4639 69.9299L29.2995 55.0836V45.0889H12.8262Z" fill="url(#paint0_linear_25064_883)" fill-opacity="0.5"/>
<path d="M65.8105 84L95 59.6442V12H53.9613V53.434H68.7005L52.3236 69.9299L65.8105 84ZM62.1497 45.0889V20.248H86.8115V55.4717L66.6775 72.4528L63.7874 69.9299L78.623 55.0836V45.0889H62.1497ZM3 69.9299L16.9686 84L46.1581 59.6442V12H4.6377V53.434H19.377L3 69.9299ZM12.8262 45.0889V20.248H37.488V55.4717L17.3539 72.4528L14.4639 69.9299L29.2995 55.0836V45.0889H12.8262Z" fill="url(#paint1_linear_25064_883)" fill-opacity="0.3"/>
</g>
</g>
<defs>
<linearGradient id="paint0_linear_25064_883" x1="49" y1="84" x2="49" y2="12" gradientUnits="userSpaceOnUse">
<stop stop-color="#292E4B" stop-opacity="0.75"/>
<stop offset="1" stop-color="#303A78"/>
</linearGradient>
<linearGradient id="paint1_linear_25064_883" x1="16.5" y1="17" x2="137" y2="73" gradientUnits="userSpaceOnUse">
<stop stop-color="#DF1DFF"/>
<stop offset="1" stop-color="#48CDFF" stop-opacity="0"/>
</linearGradient>
</defs>
</svg>
