<svg aria-hidden="true" style="position: absolute; width: 0; height: 0; overflow: hidden;" version="1.1" xmlns="http://www.w3.org/2000/svg" xmlns:xlink="http://www.w3.org/1999/xlink">
<defs>
<symbol id="burger" viewBox="0 0 31 32">
<path fill="#fff" style="fill: var(--color1, #fff)" d="M5.172 24h20.687c0.711 0 1.293-0.6 1.293-1.333s-0.582-1.333-1.293-1.333h-20.687c-0.711 0-1.293 0.6-1.293 1.333s0.582 1.333 1.293 1.333zM5.172 17.333h20.687c0.711 0 1.293-0.6 1.293-1.333s-0.582-1.333-1.293-1.333h-20.687c-0.711 0-1.293 0.6-1.293 1.333s0.582 1.333 1.293 1.333zM3.879 9.333c0 0.733 0.582 1.333 1.293 1.333h20.687c0.711 0 1.293-0.6 1.293-1.333s-0.582-1.333-1.293-1.333h-20.687c-0.711 0-1.293 0.6-1.293 1.333z"></path>
</symbol>
<symbol id="close" viewBox="0 0 32 32">
<path fill="#fff" style="fill: var(--color1, #fff)" d="M24.4 7.614c-0.123-0.124-0.27-0.222-0.431-0.289s-0.334-0.101-0.509-0.101c-0.175 0-0.347 0.034-0.509 0.101s-0.308 0.165-0.431 0.289l-6.52 6.507-6.52-6.52c-0.123-0.123-0.27-0.221-0.431-0.288s-0.334-0.101-0.509-0.101c-0.175 0-0.347 0.034-0.509 0.101s-0.308 0.165-0.431 0.288c-0.123 0.123-0.221 0.27-0.288 0.431s-0.101 0.334-0.101 0.509c0 0.175 0.034 0.347 0.101 0.509s0.165 0.308 0.288 0.431l6.52 6.52-6.52 6.52c-0.123 0.124-0.221 0.27-0.288 0.431s-0.101 0.334-0.101 0.509c0 0.175 0.034 0.348 0.101 0.509s0.165 0.308 0.288 0.431c0.123 0.124 0.27 0.221 0.431 0.288s0.334 0.101 0.509 0.101c0.175 0 0.347-0.034 0.509-0.101s0.308-0.165 0.431-0.288l6.52-6.52 6.52 6.52c0.124 0.124 0.27 0.221 0.431 0.288s0.334 0.101 0.509 0.101c0.175 0 0.348-0.034 0.509-0.101s0.308-0.165 0.431-0.288c0.124-0.123 0.221-0.27 0.288-0.431s0.101-0.334 0.101-0.509c0-0.174-0.034-0.347-0.101-0.509s-0.165-0.308-0.288-0.431l-6.52-6.52 6.52-6.52c0.507-0.507 0.507-1.36 0-1.867z"></path>
</symbol>
<symbol id="folder" viewBox="0 0 28 32">
<path fill="#fff" style="fill: var(--color1, #fff)" d="M27.717 8.791l0.024 0.041c0.097 0.168 0.137 0.354 0.124 0.535 0.001 0.027 0.002 0.054 0.002 0.081v20.347c0 1.216-0.989 2.205-2.205 2.205h-23.457c-1.216 0-2.205-0.989-2.205-2.205v-20.273c0-0.194 0.035-0.38 0.099-0.552 0.021-0.075 0.050-0.149 0.091-0.22l4.524-7.849c0.321-0.556 0.918-0.901 1.559-0.901h15.321c0.64 0 1.237 0.344 1.558 0.899l4.452 7.697c0.042 0.062 0.080 0.127 0.113 0.195zM21.551 1.876h-6.647v6.055h10.149l-3.502-6.055zM13.028 1.876h-6.711l-3.49 6.055h10.201v-6.055zM25.662 30.124c0.182 0 0.33-0.148 0.33-0.33v-19.989h-24.116v19.989c0 0.182 0.148 0.33 0.33 0.33h23.457zM16.865 16.877c0.366-0.366 0.96-0.366 1.326 0s0.366 0.96 0 1.326l-4.851 4.851c-0.183 0.183-0.423 0.275-0.663 0.275s-0.48-0.092-0.663-0.275l-2.274-2.273c-0.366-0.366-0.366-0.96 0-1.326s0.96-0.366 1.326 0l1.61 1.61 4.188-4.188z"></path>
</symbol>
<symbol id="pennies" viewBox="0 0 32 32">
<path fill="#e9eef4" style="fill: var(--color2, #e9eef4)" d="M31.716 18.128c-0.169-0.288-0.403-0.532-0.683-0.713s-0.6-0.293-0.931-0.327c0.996-0.932 1.636-2.182 1.81-3.536s-0.13-2.725-0.859-3.878c-0.729-1.153-1.837-2.016-3.133-2.439s-2.699-0.38-3.967 0.121c-1.268 0.501-2.321 1.43-2.978 2.626s-0.877 2.583-0.621 3.924c0.256 1.34 0.971 2.549 2.022 3.418s2.372 1.344 3.736 1.342c0.096 0 0.187-0.011 0.277-0.016l-7.215 3.861c0-0.037 0.011-0.075 0.011-0.112 0-0.707-0.281-1.386-0.78-1.886s-1.177-0.781-1.884-0.781h-10.657c-0.083 0-0.166 0.021-0.24 0.059l-1.391 0.693c-0.073-0.362-0.268-0.688-0.554-0.923s-0.643-0.362-1.013-0.363h-1.066c-0.424 0.001-0.829 0.17-1.129 0.47s-0.468 0.706-0.47 1.13v9.6c0.001 0.424 0.17 0.83 0.47 1.13s0.705 0.469 1.129 0.47h1.066c0.397-0.001 0.779-0.15 1.072-0.419s0.475-0.636 0.511-1.032l1.487 0.368c0.042 0.011 0.085 0.016 0.128 0.016h7.321c0.469-0.001 0.93-0.124 1.337-0.357l16.423-9.541c0.486-0.284 0.84-0.749 0.985-1.294s0.068-1.124-0.213-1.613zM3.197 30.399c0 0.141-0.056 0.277-0.156 0.377s-0.235 0.156-0.377 0.156h-1.066c-0.141 0-0.277-0.056-0.377-0.156s-0.156-0.236-0.156-0.377v-9.6c0-0.141 0.056-0.277 0.156-0.377s0.235-0.156 0.377-0.156h1.066c0.141 0 0.277 0.056 0.377 0.156s0.156 0.236 0.156 0.377v9.6zM26.11 17.6c-0.948 0-1.876-0.281-2.664-0.809s-1.403-1.277-1.766-2.154-0.458-1.842-0.273-2.773c0.185-0.931 0.642-1.786 1.313-2.458s1.525-1.128 2.456-1.314c0.93-0.185 1.895-0.090 2.771 0.273s1.625 0.979 2.152 1.768c0.527 0.789 0.808 1.717 0.808 2.667-0.002 1.272-0.508 2.492-1.407 3.392s-2.118 1.406-3.389 1.408zM30.41 20.112l-16.423 9.536c-0.244 0.143-0.522 0.218-0.805 0.219h-7.258l-1.663-0.411v-7.792l1.726-0.864h10.529c0.424 0 0.831 0.169 1.13 0.469s0.468 0.707 0.468 1.131c0 0.424-0.168 0.831-0.468 1.131s-0.706 0.469-1.13 0.469h-7.993v1.067h7.993c0.408-0.001 0.81-0.096 1.175-0.279s0.683-0.446 0.93-0.772l10.732-5.739c0.243-0.133 0.528-0.166 0.794-0.091s0.493 0.251 0.631 0.491 0.177 0.525 0.107 0.793c-0.069 0.268-0.241 0.498-0.477 0.642z"></path>
<path fill="#e9eef4" style="fill: var(--color2, #e9eef4)" d="M15.986 0c-1.159 0-2.293 0.344-3.256 0.989s-1.715 1.561-2.159 2.633c-0.444 1.072-0.56 2.252-0.334 3.39s0.784 2.183 1.604 3.004c0.82 0.82 1.864 1.379 3.001 1.606s2.316 0.11 3.387-0.334c1.071-0.444 1.986-1.196 2.631-2.161s0.988-2.099 0.988-3.259c-0.001-1.556-0.619-3.047-1.718-4.147s-2.589-1.718-4.144-1.719zM15.986 10.667c-0.949 0-1.876-0.282-2.664-0.809s-1.403-1.277-1.766-2.154c-0.363-0.877-0.458-1.842-0.273-2.773s0.642-1.786 1.312-2.458c0.671-0.671 1.525-1.128 2.456-1.314s1.895-0.090 2.771 0.273c0.876 0.363 1.625 0.979 2.152 1.768s0.808 1.717 0.808 2.667c-0.002 1.272-0.508 2.492-1.407 3.392s-2.118 1.406-3.389 1.408z"></path>
<path fill="#e9eef4" style="fill: var(--color2, #e9eef4)" d="M5.861 6.933c-1.159 0-2.293 0.344-3.256 0.989s-1.715 1.561-2.159 2.633-0.56 2.252-0.334 3.39c0.226 1.138 0.784 2.183 1.604 3.004s1.864 1.379 3.001 1.606c1.137 0.226 2.316 0.11 3.387-0.334s1.986-1.196 2.631-2.161 0.988-2.099 0.988-3.259c-0.001-1.556-0.619-3.047-1.718-4.147s-2.589-1.718-4.144-1.719zM5.861 17.6c-0.949 0-1.876-0.282-2.664-0.809s-1.403-1.277-1.766-2.154c-0.363-0.877-0.458-1.842-0.273-2.773s0.642-1.786 1.312-2.458 1.525-1.128 2.455-1.314c0.93-0.185 1.895-0.090 2.771 0.273s1.625 0.979 2.152 1.768c0.527 0.789 0.808 1.717 0.808 2.667-0.002 1.272-0.508 2.492-1.407 3.392s-2.118 1.406-3.389 1.408z"></path>
<path fill="#e9eef4" style="fill: var(--color2, #e9eef4)" d="M5.329 1.821v3.513h1.066v-3.513l1.222 1.223 0.753-0.754-2.131-2.133c-0.1-0.1-0.235-0.156-0.377-0.156s-0.277 0.056-0.377 0.156l-2.131 2.133 0.753 0.754 1.222-1.223z"></path>
<path fill="#e9eef4" style="fill: var(--color2, #e9eef4)" d="M16.519 18.667v-3.513l1.222 1.223 0.753-0.754-2.131-2.133c-0.1-0.1-0.235-0.156-0.377-0.156s-0.277 0.056-0.377 0.156l-2.132 2.133 0.754 0.754 1.222-1.223v3.513h1.066z"></path>
<path fill="#e9eef4" style="fill: var(--color2, #e9eef4)" d="M25.577 1.821v3.513h1.066v-3.513l1.222 1.223 0.753-0.754-2.131-2.133c-0.1-0.1-0.235-0.156-0.377-0.156s-0.277 0.056-0.377 0.156l-2.131 2.133 0.753 0.754 1.222-1.223z"></path>
<path fill="#e9eef4" style="fill: var(--color2, #e9eef4)" d="M8.526 11.733c-0-0.331-0.103-0.654-0.295-0.923s-0.463-0.473-0.776-0.581l0.005-1.163h-1.066l-0.005 1.067h-1.066l0.005-1.067h-1.066l-0.005 1.067h-1.060v1.067h1.066v3.2h-1.066v1.067h1.060l-0.005 1.045 1.066 0.005 0.005-1.051h1.066l-0.005 1.045 1.066 0.005 0.011-1.147c0.31-0.111 0.579-0.314 0.77-0.584s0.294-0.591 0.296-0.92c-0.001-0.395-0.149-0.775-0.416-1.067 0.266-0.291 0.415-0.672 0.416-1.067zM6.927 14.4h-1.599v-1.067h1.599c0.141 0 0.277 0.056 0.377 0.156s0.156 0.236 0.156 0.377-0.056 0.277-0.156 0.377c-0.1 0.1-0.235 0.156-0.377 0.156zM6.927 12.267h-1.599v-1.067h1.599c0.141 0 0.277 0.056 0.377 0.156s0.156 0.236 0.156 0.377-0.056 0.277-0.156 0.377c-0.1 0.1-0.235 0.156-0.377 0.156z"></path>
<path fill="#e9eef4" style="fill: var(--color2, #e9eef4)" d="M28.774 11.733c-0-0.331-0.103-0.654-0.295-0.923s-0.463-0.473-0.776-0.581l0.005-1.163h-1.066l-0.005 1.067h-1.066l0.005-1.067h-1.066l-0.005 1.067h-1.060v1.067h1.066v3.2h-1.066v1.067h1.060l-0.005 1.045 1.066 0.005 0.005-1.051h1.066l-0.005 1.045 1.066 0.005 0.011-1.147c0.31-0.111 0.579-0.314 0.77-0.584s0.294-0.591 0.296-0.92c-0.001-0.395-0.149-0.775-0.416-1.067 0.266-0.291 0.415-0.672 0.416-1.067zM27.176 14.4h-1.599v-1.067h1.599c0.141 0 0.277 0.056 0.377 0.156s0.156 0.236 0.156 0.377-0.056 0.277-0.156 0.377c-0.1 0.1-0.235 0.156-0.377 0.156zM27.176 12.267h-1.599v-1.067h1.599c0.141 0 0.277 0.056 0.377 0.156s0.156 0.236 0.156 0.377-0.056 0.277-0.156 0.377c-0.1 0.1-0.235 0.156-0.377 0.156z"></path>
<path fill="#e9eef4" style="fill: var(--color2, #e9eef4)" d="M18.65 4.8c-0-0.331-0.103-0.654-0.295-0.923s-0.463-0.473-0.776-0.581l0.005-1.163h-1.066l-0.005 1.067h-1.066l0.005-1.067h-1.066l-0.005 1.067h-1.060v1.067h1.066v3.2h-1.066v1.067h1.060l-0.005 1.045 1.066 0.005 0.005-1.051h1.066l-0.005 1.045 1.066 0.005 0.011-1.147c0.31-0.111 0.579-0.314 0.77-0.584s0.294-0.591 0.296-0.92c-0.001-0.395-0.149-0.775-0.416-1.067 0.266-0.291 0.415-0.672 0.416-1.067zM17.052 7.467h-1.599v-1.067h1.599c0.141 0 0.277 0.056 0.377 0.156s0.156 0.236 0.156 0.377c0 0.141-0.056 0.277-0.156 0.377s-0.235 0.156-0.377 0.156zM17.052 5.333h-1.599v-1.067h1.599c0.141 0 0.277 0.056 0.377 0.156s0.156 0.236 0.156 0.377c0 0.141-0.056 0.277-0.156 0.377s-0.235 0.156-0.377 0.156z"></path>
</symbol>
<symbol id="diagram" viewBox="0 0 31 32">
<path fill="#fff" style="fill: var(--color1, #fff)" d="M14.348 16.429v-14.125c0-0.36-0.292-0.652-0.652-0.652-7.552 0-13.696 6.729-13.696 15s6.729 15 15 15c3.7 0 5.703-0.67 8.241-2.757 0.273-0.224 0.317-0.625 0.1-0.904l-8.993-11.562zM15 30.348c-7.552 0-13.696-6.143-13.696-13.696 0-7.31 5.208-13.3 11.739-13.677v13.677c0 0.145 0.048 0.286 0.138 0.4l8.734 11.229c-2.060 1.573-3.777 2.066-6.916 2.066z"></path>
<path fill="#fff" style="fill: var(--color1, #fff)" d="M16.304 16h14.348c0.36 0 0.652-0.292 0.652-0.652 0-8.271-6.729-15-15-15-0.36 0-0.652 0.292-0.652 0.652v14.348c0 0.36 0.292 0.652 0.652 0.652zM16.957 1.668c7.034 0.331 12.697 5.993 13.028 13.028h-13.028v-13.028z"></path>
<path fill="#fff" style="fill: var(--color1, #fff)" d="M30.652 17.304h-13.043c-0.25 0-0.481 0.145-0.59 0.372s-0.076 0.496 0.082 0.69l8.478 10.496c0.114 0.142 0.28 0.228 0.462 0.241 0.016 0.001 0.030 0.001 0.046 0.001 0.164 0 0.324-0.063 0.445-0.175 3.033-2.829 4.773-6.828 4.773-10.973 0-0.36-0.292-0.652-0.652-0.652zM26.143 27.483l-7.169-8.875h11.010c-0.16 3.316-1.533 6.486-3.841 8.875z"></path>
</symbol>
<symbol id="quotes" viewBox="0 0 32 32">
<path fill="#000" style="fill: var(--color3, #000)" opacity="0.5" d="M21.272 27.151l9.435-7.873v-15.4h-13.265v13.393h4.764l-5.294 5.332 4.359 4.548zM20.089 14.574v-8.029h7.971v11.385l-6.508 5.489-0.934-0.815 4.795-4.799v-3.231h-5.325zM0.97 22.604l4.515 4.548 9.435-7.873v-15.4h-13.421v13.393h4.764l-5.294 5.332zM4.146 14.574v-8.029h7.971v11.385l-6.508 5.489-0.934-0.815 4.795-4.799v-3.231h-5.325z"></path>
<path fill="#000" style="fill: var(--color3, #000)" opacity="0.3" d="M21.272 27.151l9.435-7.873v-15.4h-13.265v13.393h4.764l-5.294 5.332 4.359 4.548zM20.089 14.574v-8.029h7.971v11.385l-6.508 5.489-0.934-0.815 4.795-4.799v-3.231h-5.325zM0.97 22.604l4.515 4.548 9.435-7.873v-15.4h-13.421v13.393h4.764l-5.294 5.332zM4.146 14.574v-8.029h7.971v11.385l-6.508 5.489-0.934-0.815 4.795-4.799v-3.231h-5.325z"></path>
</symbol>
<symbol id="star-5" viewBox="0 0 38 32">
<path fill="#b982ff" style="fill: var(--color4, #b982ff)" d="M30.063 32l-10.863-7.597-10.863 7.597 4.125-12.234-10.863-7.564h13.509l4.091-12.201 4.091 12.201h13.509l-10.863 7.564 4.125 12.234zM19.2 20.917l5.294 3.618-2.063-5.887 5.259-3.651h-6.428l-2.063-5.887-2.063 5.887h-6.428l5.259 3.651-2.063 5.887 5.294-3.618z"></path>
</symbol>
<symbol id="star-4" viewBox="0 0 20 32">
<path fill="#fff" style="fill: var(--color1, #fff)" d="M20.321 16.013c-3.986 0.564-6.276 1.083-7.682 2.799-1.652 2.009-2.044 5.688-2.479 13.046-0.449-7.629-0.855-11.285-2.667-13.249-1.406-1.535-3.682-2.031-7.494-2.573 3.971-0.564 6.276-1.083 7.668-2.776 1.667-2.031 2.058-5.688 2.493-13.069 0.406 6.794 0.768 10.428 2.116 12.527s3.696 2.686 8.044 3.295z"></path>
</symbol>
<symbol id="star-8" viewBox="0 0 33 32">
<path fill="#fff" style="fill: var(--color1, #fff)" d="M16.267 0l1.245 13.044 10.257-8.357-8.497 10.089 13.261 1.225-13.261 1.225 8.497 10.089-10.257-8.357-1.245 13.044-1.245-13.044-10.257 8.357 8.497-10.089-13.261-1.225 13.261-1.225-8.497-10.089 10.257 8.357 1.245-13.044z"></path>
</symbol>
<symbol id="star-6" viewBox="0 0 35 32">
<path fill="#fff" style="fill: var(--color1, #fff)" d="M25.981 0.408c-4.108 7.422-6.378 11.123-8.667 11.123s-4.558-3.701-8.648-11.123c4.089 7.422 6.040 11.339 4.896 13.395s-5.365 2.272-13.563 2.272c8.498 0 12.719 0.215 13.675 2.487 0.9 2.115-1.051 6.012-5.009 13.18 4.108-7.422 6.378-11.123 8.667-11.123s4.558 3.701 8.667 11.123c-4.352-7.892-6.266-11.809-4.652-13.767 1.426-1.723 5.628-1.9 13.319-1.9-8.667 0-12.887-0.235-13.732-2.644-0.769-2.154 1.182-6.032 5.046-13.023z"></path>
</symbol>
<symbol id="arrow-right" viewBox="0 0 11 32">
<path fill="#fff" style="fill: var(--color1, #fff)" d="M0.28 29.519l8.197-12.493c0.18-0.273 0.281-0.641 0.281-1.024s-0.101-0.751-0.281-1.024l-8.195-12.495c-0.18-0.274-0.28-0.643-0.28-1.028s0.101-0.754 0.28-1.028c0.088-0.135 0.193-0.242 0.309-0.316s0.24-0.111 0.366-0.111c0.126 0 0.25 0.038 0.366 0.111s0.221 0.181 0.309 0.316l8.195 12.49c0.539 0.823 0.84 1.93 0.84 3.083s-0.302 2.26-0.84 3.083l-8.195 12.49c-0.088 0.135-0.193 0.243-0.309 0.317s-0.241 0.111-0.367 0.111-0.251-0.038-0.367-0.111c-0.116-0.074-0.221-0.181-0.309-0.317-0.18-0.274-0.28-0.643-0.28-1.028s0.101-0.754 0.28-1.028z"></path>
</symbol>
<symbol id="arrow-left" viewBox="0 0 11 32">
<path fill="#fff" style="fill: var(--color1, #fff)" d="M10.386 29.519l-8.197-12.493c-0.18-0.273-0.281-0.641-0.281-1.024s0.101-0.751 0.281-1.024l8.195-12.495c0.18-0.274 0.28-0.643 0.28-1.028s-0.101-0.754-0.28-1.028c-0.088-0.135-0.193-0.242-0.309-0.316s-0.24-0.111-0.366-0.111c-0.126 0-0.25 0.038-0.366 0.111s-0.221 0.181-0.309 0.316l-8.195 12.49c-0.538 0.823-0.84 1.93-0.84 3.083s0.302 2.26 0.84 3.083l8.195 12.49c0.088 0.135 0.193 0.243 0.309 0.317s0.241 0.111 0.367 0.111 0.251-0.038 0.367-0.111c0.116-0.074 0.221-0.181 0.309-0.317 0.18-0.274 0.28-0.643 0.28-1.028s-0.101-0.754-0.28-1.028z"></path>
</symbol>
<symbol id="arrow" viewBox="0 0 32 32">
<path fill="none" stroke="#495057" style="stroke: var(--color5, #495057)" stroke-linejoin="miter" stroke-linecap="square" stroke-miterlimit="4" stroke-width="2.6667" d="M17.212 9.333l6.788 6.667M24 16l-6.788 6.667M24 16h-16"></path>
</symbol>
<symbol id="cash" viewBox="0 0 32 32">
<path fill="#fff" style="fill: var(--color1, #fff)" d="M19.911 5.38c1.734 0 3.21 1.108 3.757 2.655h-11.721c-1.76 0-3.448 0.699-4.693 1.944s-1.944 2.933-1.944 4.693v6.411c-0.777-0.275-1.449-0.784-1.924-1.456s-0.731-1.476-0.73-2.3v-7.964c0-1.056 0.42-2.069 1.166-2.816s1.76-1.166 2.816-1.166h13.274zM25.221 10.69h-13.274c-1.056 0-2.069 0.42-2.816 1.166s-1.166 1.76-1.166 2.816v7.964c0 1.056 0.42 2.069 1.166 2.816s1.76 1.166 2.816 1.166h13.274c1.056 0 2.069-0.42 2.816-1.166s1.166-1.76 1.166-2.816v-7.964c0-1.056-0.42-2.069-1.166-2.816s-1.76-1.166-2.816-1.166zM21.239 18.654c0 0.704-0.28 1.379-0.778 1.877s-1.173 0.778-1.877 0.778c-0.704 0-1.379-0.28-1.877-0.778s-0.778-1.173-0.778-1.877c0-0.704 0.28-1.379 0.778-1.877s1.173-0.778 1.877-0.778c0.704 0 1.379 0.28 1.877 0.778s0.778 1.173 0.778 1.877z"></path>
</symbol>
<symbol id="trade" viewBox="0 0 32 32">
<path fill="#fff" style="fill: var(--color1, #fff)" d="M12.743 7.964c-0.422 0-0.828 0.168-1.126 0.467s-0.467 0.704-0.467 1.126 0.168 0.828 0.467 1.126c0.299 0.299 0.704 0.467 1.126 0.467h8.898l-2.060 2.060c-0.29 0.3-0.451 0.703-0.447 1.12s0.171 0.817 0.466 1.113c0.295 0.295 0.695 0.463 1.113 0.466s0.82-0.157 1.12-0.447l4.779-4.779c0.299-0.299 0.466-0.704 0.466-1.126s-0.168-0.827-0.466-1.126l-4.779-4.779c-0.147-0.152-0.323-0.273-0.517-0.357s-0.403-0.127-0.615-0.129-0.421 0.038-0.617 0.119c-0.196 0.080-0.374 0.198-0.523 0.348s-0.268 0.327-0.348 0.523c-0.080 0.196-0.12 0.405-0.119 0.617s0.046 0.421 0.129 0.615c0.084 0.194 0.205 0.37 0.357 0.517l2.060 2.060h-8.898z"></path>
<path fill="#fff" style="fill: var(--color1, #fff)" d="M19.114 23.893c0.422 0 0.828-0.168 1.126-0.467s0.467-0.704 0.467-1.126-0.168-0.828-0.467-1.126c-0.299-0.299-0.704-0.467-1.126-0.467h-8.898l2.060-2.060c0.152-0.147 0.273-0.323 0.357-0.517s0.127-0.403 0.129-0.615-0.038-0.421-0.119-0.617c-0.080-0.196-0.198-0.374-0.348-0.523s-0.327-0.268-0.523-0.348c-0.196-0.080-0.405-0.12-0.617-0.119s-0.421 0.046-0.615 0.129c-0.194 0.084-0.37 0.205-0.517 0.357l-4.779 4.779c-0.299 0.299-0.466 0.704-0.466 1.126s0.168 0.827 0.466 1.126l4.779 4.779c0.3 0.29 0.703 0.451 1.12 0.447s0.817-0.171 1.112-0.466c0.295-0.295 0.463-0.695 0.466-1.113s-0.157-0.82-0.447-1.12l-2.060-2.060h8.898z"></path>
</symbol>
<symbol id="wallet" viewBox="0 0 32 32">
<path fill="#fff" style="fill: var(--color1, #fff)" d="M25.487 9.956v-2.389c0-1.318-1.072-2.389-2.389-2.389h-15.531c-1.976 0-3.584 1.608-3.584 3.584v14.336c0 2.63 2.143 3.584 3.584 3.584h17.92c1.318 0 2.389-1.072 2.389-2.389v-11.947c0-1.318-1.072-2.389-2.389-2.389zM23.097 20.708h-2.389v-4.779h2.389v4.779zM7.567 9.956c-0.308-0.014-0.598-0.146-0.811-0.368s-0.332-0.519-0.332-0.826c0-0.308 0.119-0.604 0.332-0.826s0.503-0.354 0.811-0.368h15.531v2.389h-15.531z"></path>
</symbol>
</defs>
</svg>
