<svg viewBox="0 0 52 48" fill="none" xmlns="http://www.w3.org/2000/svg">
<path d="M38.9719 0.611328C32.8095 11.7445 29.4048 17.2963 25.9719 17.2963C22.539 17.2963 19.1342 11.7445 13 0.611328C19.1342 11.7445 22.0606 17.6195 20.3442 20.7038C18.6277 23.7882 12.2965 24.1113 0 24.1113C12.7468 24.1113 19.0779 24.4345 20.513 27.842C21.8636 31.0145 18.9372 36.8601 13 47.6113C19.1623 36.4782 22.5671 30.9263 26 30.9263C29.4329 30.9263 32.8377 36.4782 39 47.6113C32.4719 35.7732 29.6017 29.8982 32.0216 26.9607C34.1602 24.3757 40.4632 24.1113 52 24.1113C39 24.1113 32.6688 23.7588 31.4026 20.1457C30.2489 16.9145 33.1753 11.0982 38.9719 0.611328Z" fill="white"/>
</svg>
